<svg xmlns="http://www.w3.org/2000/svg" viewBox="0 0 800 620" role="img" aria-labelledby="title desc"><title id="title">3D IT services illustration</title><desc id="desc">Stylized claymorphic illustration representing IT support, networking, data protection and business technology.</desc><defs><linearGradient id="bg" x1="0" y1="0" x2="1" y2="1"><stop stop-color="#f7fbff"/><stop offset="1" stop-color="#e6f1ff"/></linearGradient><linearGradient id="b" x1="0" y1="0" x2="1" y2="1"><stop stop-color="#5b9bff"/><stop offset="1" stop-color="#1554bd"/></linearGradient><linearGradient id="g" x1="0" y1="0" x2="1" y2="1"><stop stop-color="#b9f0ff"/><stop offset="1" stop-color="#49b9ea"/></linearGradient><filter id="s"><feDropShadow dx="0" dy="16" stdDeviation="17" flood-color="#1b4c88" flood-opacity=".18"/></filter></defs><rect x="25" y="25" width="750" height="570" rx="52" fill="url(#bg)"/><ellipse cx="400" cy="520" rx="260" ry="40" fill="#b8d1ed" opacity=".5"/><g filter="url(#s)"><rect x="120" y="155" width="220" height="250" rx="38" fill="#fff"/><rect x="155" y="195" width="150" height="110" rx="20" fill="url(#b)"/><circle cx="230" cy="250" r="30" fill="url(#g)"/><path d="M216 250l10 10 23-27" fill="none" stroke="#fff" stroke-width="9" stroke-linecap="round" stroke-linejoin="round"/><rect x="170" y="330" width="120" height="22" rx="11" fill="#d8e6f7"/><rect x="385" y="110" width="300" height="330" rx="42" fill="#fff"/><circle cx="535" cy="220" r="78" fill="url(#b)"/><circle cx="535" cy="220" r="34" fill="#fff"/><path d="M535 158v124M473 220h124" stroke="#fff" stroke-width="10" stroke-linecap="round"/><circle cx="450" cy="350" r="30" fill="url(#g)"/><circle cx="620" cy="350" r="30" fill="url(#g)"/><path d="M475 350h130M535 298v22" fill="none" stroke="#5d86b7" stroke-width="9" stroke-linecap="round"/></g><g fill="#2568cf"><circle cx="92" cy="265" r="8"/><circle cx="710" cy="260" r="8"/><circle cx="730" cy="410" r="6"/></g></svg>