<svg xmlns="http://www.w3.org/2000/svg" viewBox="0 0 800 620" role="img" aria-labelledby="title desc"><title id="title">3D customer IT support illustration</title><desc id="desc">Stylized claymorphic illustration of professional technical support and business connectivity.</desc><defs><linearGradient id="bg" x1="0" y1="0" x2="1" y2="1"><stop stop-color="#f6fbff"/><stop offset="1" stop-color="#e3f0ff"/></linearGradient><linearGradient id="blue" x1="0" y1="0" x2="1" y2="1"><stop stop-color="#619fff"/><stop offset="1" stop-color="#1c5bc5"/></linearGradient><linearGradient id="cyan" x1="0" y1="0" x2="1" y2="1"><stop stop-color="#b7f2ff"/><stop offset="1" stop-color="#40b7e9"/></linearGradient><filter id="shadow"><feDropShadow dx="0" dy="18" stdDeviation="18" flood-color="#24558d" flood-opacity=".18"/></filter></defs><rect x="25" y="25" width="750" height="570" rx="52" fill="url(#bg)"/><ellipse cx="400" cy="520" rx="260" ry="42" fill="#b9d1e9" opacity=".5"/><g filter="url(#shadow)"><circle cx="280" cy="245" r="100" fill="url(#blue)"/><circle cx="280" cy="220" r="38" fill="#fff"/><path d="M218 292c25-35 99-35 124 0" fill="#fff"/><path d="M215 190c16-55 114-62 137 2" fill="none" stroke="#fff" stroke-width="17" stroke-linecap="round"/><rect x="245" y="330" width="70" height="70" rx="22" fill="#fff"/><path d="M280 350v30M265 365h30" stroke="url(#blue)" stroke-width="9" stroke-linecap="round"/><rect x="410" y="125" width="260" height="300" rx="42" fill="#fff"/><rect x="450" y="165" width="180" height="115" rx="22" fill="#102c59"/><circle cx="540" cy="222" r="35" fill="url(#cyan)"/><path d="M522 222l13 13 28-34" fill="none" stroke="#fff" stroke-width="9" stroke-linecap="round" stroke-linejoin="round"/><rect x="470" y="315" width="160" height="18" rx="9" fill="#d8e6f7"/><rect x="490" y="350" width="120" height="18" rx="9" fill="#d8e6f7"/><path d="M380 245h55" stroke="#6d99c7" stroke-width="10" stroke-linecap="round" stroke-dasharray="10 12"/><circle cx="382" cy="245" r="10" fill="#2e70d2"/></g><g fill="#2c6bd6"><circle cx="110" cy="150" r="8"/><circle cx="125" cy="390" r="6"/><circle cx="700" cy="470" r="8"/></g></svg>