<svg xmlns="http://www.w3.org/2000/svg" viewBox="0 0 720 460" role="img" aria-labelledby="title desc"><title id="title">3D EPABX and telephone exchange illustration</title><desc id="desc">Stylized three-dimensional office telephone, EPABX exchange unit and communication headset.</desc><defs><linearGradient id="bg" x1="0" y1="0" x2="1" y2="1"><stop stop-color="#eff6ff"/><stop offset="1" stop-color="#e0f2fe"/></linearGradient><linearGradient id="pbx" x1="0" y1="0" x2="1" y2="1"><stop stop-color="#1e293b"/><stop offset="1" stop-color="#475569"/></linearGradient><filter id="shadow"><feDropShadow dx="0" dy="16" stdDeviation="14" flood-opacity=".16"/></filter></defs><rect width="720" height="460" rx="42" fill="url(#bg)"/><circle cx="105" cy="105" r="70" fill="#fff" opacity=".72"/><g filter="url(#shadow)"><rect x="355" y="100" width="260" height="235" rx="28" fill="url(#pbx)"/><rect x="388" y="137" width="194" height="64" rx="14" fill="#0f172a"/><text x="485" y="178" text-anchor="middle" font-family="Arial,sans-serif" font-size="27" font-weight="700" fill="#e2e8f0">EPABX</text><g fill="#38bdf8"><circle cx="405" cy="235" r="8"/><circle cx="431" cy="235" r="8"/><circle cx="457" cy="235" r="8"/><circle cx="483" cy="235" r="8"/><circle cx="509" cy="235" r="8"/><circle cx="535" cy="235" r="8"/></g><g fill="#22c55e"><circle cx="405" cy="268" r="7"/><circle cx="431" cy="268" r="7"/><circle cx="457" cy="268" r="7"/><circle cx="483" cy="268" r="7"/><circle cx="509" cy="268" r="7"/><circle cx="535" cy="268" r="7"/></g><path d="M170 245c-10-56 34-93 89-93s99 37 89 93" fill="none" stroke="#334155" stroke-width="24" stroke-linecap="round"/><path d="M166 238h32v86h-32zM326 238h32v86h-32z" fill="#1e293b"/><path d="M198 269c28 24 72 37 108 0" fill="none" stroke="#334155" stroke-width="15" stroke-linecap="round"/><rect x="178" y="232" width="145" height="65" rx="20" fill="#f8fafc"/><rect x="205" y="247" width="52" height="31" rx="8" fill="#2563eb"/><g fill="#94a3b8"><circle cx="276" cy="249" r="5"/><circle cx="292" cy="249" r="5"/><circle cx="308" cy="249" r="5"/><circle cx="276" cy="267" r="5"/><circle cx="292" cy="267" r="5"/><circle cx="308" cy="267" r="5"/></g><path d="M327 267h37" stroke="#334155" stroke-width="10" stroke-linecap="round"/></g><g transform="translate(285 112)" filter="url(#shadow)"><circle r="48" fill="#fff"/><path d="M-22 0h44M0-22v44" stroke="#2563eb" stroke-width="10" stroke-linecap="round"/><path d="M-32-32l64 64M32-32L-32 32" stroke="#38bdf8" stroke-width="6" stroke-linecap="round" opacity=".7"/></g></svg>