<svg xmlns="http://www.w3.org/2000/svg" viewBox="0 0 900 700" role="img" aria-labelledby="title desc"><title id="title">Modern business technology illustration</title><desc id="desc">Claymorphic illustration of computers, cloud, networking, security and business technology</desc><defs><linearGradient id="bg" x1="0" y1="0" x2="1" y2="1"><stop stop-color="#eef5ff"/><stop offset="1" stop-color="#dce9ff"/></linearGradient><linearGradient id="blue" x1="0" y1="0" x2="1" y2="1"><stop stop-color="#3973ff"/><stop offset="1" stop-color="#1747d4"/></linearGradient><linearGradient id="cyan" x1="0" y1="0" x2="1" y2="1"><stop stop-color="#65c8ff"/><stop offset="1" stop-color="#2789dd"/></linearGradient><filter id="shadow" x="-30%" y="-30%" width="160%" height="170%"><feDropShadow dx="0" dy="18" stdDeviation="18" flood-opacity=".18"/></filter></defs><ellipse cx="450" cy="625" rx="330" ry="38" fill="#b8c8e8" opacity=".45"/><g filter="url(#shadow)"><rect x="105" y="175" width="400" height="275" rx="30" fill="url(#bg)"/><rect x="135" y="205" width="340" height="210" rx="18" fill="#fff"/><rect x="175" y="245" width="260" height="12" rx="6" fill="#dbe6fb"/><rect x="175" y="275" width="190" height="12" rx="6" fill="#e7eefb"/><circle cx="200" cy="335" r="32" fill="#eaf2ff"/><path d="M187 337l10 10 20-25" fill="none" stroke="#3973ff" stroke-width="9" stroke-linecap="round" stroke-linejoin="round"/><rect x="245" y="315" width="145" height="12" rx="6" fill="#dbe6fb"/><rect x="245" y="342" width="110" height="12" rx="6" fill="#edf2fa"/><path d="M275 450h60l18 38H257z" fill="#b8c8e8"/><rect x="235" y="485" width="140" height="18" rx="9" fill="#8fa6d2"/></g><g filter="url(#shadow)"><rect x="480" y="105" width="270" height="170" rx="32" fill="#fff"/><path d="M525 225c0-42 34-76 76-76 28 0 53 15 66 38 8-5 17-8 27-8 27 0 49 22 49 49 0 4 0 8-1 12H525z" fill="url(#cyan)"/><circle cx="585" cy="218" r="6" fill="#fff"/><circle cx="615" cy="218" r="6" fill="#fff"/><circle cx="645" cy="218" r="6" fill="#fff"/></g><g filter="url(#shadow)"><rect x="555" y="330" width="230" height="205" rx="28" fill="url(#blue)"/><rect x="590" y="365" width="160" height="105" rx="15" fill="#102d75"/><circle cx="615" cy="390" r="7" fill="#65c8ff"/><circle cx="638" cy="390" r="7" fill="#8bd5ff"/><rect x="615" y="420" width="105" height="8" rx="4" fill="#4168c6"/><rect x="615" y="442" width="80" height="8" rx="4" fill="#4168c6"/><rect x="605" y="492" width="140" height="12" rx="6" fill="#6285df"/></g><g filter="url(#shadow)"><circle cx="455" cy="500" r="70" fill="#fff"/><path d="M455 452l17 12 20-3 8 19 18 10-8 19 8 19-18 10-8 19-20-3-17 12-17-12-20 3-8-19-18-10 8-19-8-19 18-10 8-19 20 3z" fill="url(#blue)"/><path d="M430 501l17 17 34-38" fill="none" stroke="#fff" stroke-width="11" stroke-linecap="round" stroke-linejoin="round"/></g><g stroke="#3973ff" stroke-width="5" stroke-linecap="round" opacity=".65"><path d="M505 410l75-45"/><path d="M505 525l50-55"/><path d="M505 475l50-40"/></g><g fill="#65c8ff"><circle cx="580" cy="365" r="9"/><circle cx="555" cy="470" r="9"/><circle cx="555" cy="435" r="9"/></g></svg>